/* XPM */
static char * file_xpm[] = {
"64 64 78 1",
" 	c None",
".	c #5EAADE",
"+	c #60AADD",
"@	c #61ABDF",
"#	c #61AADE",
"$	c #62AADF",
"%	c #67AEE0",
"&	c #68AEE0",
"*	c #62AADE",
"=	c #5DA8DD",
"-	c #5EA7DD",
";	c #66ADDF",
">	c #64ADE0",
",	c #60A8DD",
"'	c #62ACDD",
")	c #62ACDE",
"!	c #86BEE6",
"~	c #C3DFF3",
"{	c #66ADE0",
"]	c #96C6E9",
"^	c #F0F7FC",
"/	c #66AEDF",
"(	c #8EC3E8",
"_	c #B3D6EF",
":	c #8BC1E7",
"<	c #EDF5FB",
"[	c #8EC2E8",
"}	c #97C7EA",
"|	c #EFF6FC",
"1	c #9BC9EA",
"2	c #A1CDEC",
"3	c #A6CFED",
"4	c #B2D6EF",
"5	c #69AEE0",
"6	c #BDDCF2",
"7	c #C1DEF2",
"8	c #69AFE0",
"9	c #6BB0E1",
"0	c #CAE3F4",
"a	c #CDE4F5",
"b	c #6CB0E1",
"c	c #6DB1E1",
"d	c #D2E7F6",
"e	c #D5E8F6",
"f	c #6FB2E1",
"g	c #73B4E2",
"h	c #DCECF8",
"i	c #DEEDF8",
"j	c #75B5E3",
"k	c #7AB8E4",
"l	c #E3F0F9",
"m	c #E5F1FA",
"n	c #7CB9E4",
"o	c #80BBE5",
"p	c #E8F3FA",
"q	c #E9F3FB",
"r	c #83BDE6",
"s	c #67AEDF",
"t	c #64ACDF",
"u	c #63ACDF",
"v	c #5BA7DD",
"w	c #5AA7DD",
"x	c #4EA0DA",
"y	c #4099D7",
"z	c #2A8DD3",
"A	c #65ADDF",
"B	c #298DD3",
"C	c #268BD2",
"D	c #489DD9",
"E	c #479DD9",
"F	c #278BD2",
"G	c #57A5DC",
"H	c #56A4DC",
"I	c #268CD2",
"J	c #268AD2",
"K	c #278BD1",
"L	c #268BD1",
"M	c #258BD2",
"                                                                ",
"                                                                ",
"                                                                ",
"                                                                ",
"                                                                ",
"               .+@############################@+.               ",
"            $%&&&&&&&&&&&&&&&&&&&&&&&&&&&&&&&&&&&&%*            ",
"          =%&&&&&&&&&&&&&&&&&&&&&&&&&&&&&&&&&&&&&&&&%-          ",
"          &&&&&&&&&&&&&&&&&&&&&&&&&&&&&&&&&&&&&&&&&&&&          ",
"         ;&&&&&&&&&&&&&&&&&&&&&&&&&&&&&&&&&&&&&&&&&&&&>         ",
"         &&&&&&&&&&&&&&&&&&&&&&&&&&&&&&&&&&&&&&&&&&&&&&         ",
"        .&&&&&&&&&&&&&&&&&&&&&&&&&&&&&&&&&&&&&&&&&&&&&&,        ",
"        '&&&&&&&&&&&&&&&&&&&&&&&&&&&&&&&&&&&&&&&&&&&&&&)        ",
"        ;&&&&&&&&&&&&&&&&&!~~~~~~~~~~!&&&&&&&&&&&&&&&&&>        ",
"        {&&&&&&&&&&&&&&&&&]^^^^^^^^^^]&&&&&&&&&&&&&&&&&/        ",
"        %&&&&&&&&&&&&&&&&&]^^^^^^^^^^]&&&&&&&&&&&&&&&&&%        ",
"        &&&&&&&&&&&&&&&&&&]^^^^^^^^^^]&&&&&&&&&&&&&&&&&&        ",
"        &&&&&&&&&&&&&&&&&&]^^^^^^^^^^]&&&&&&&&&&&&&&&&&&        ",
"        &&&&&&&&&&&&&&&&&&]^^^^^^^^^^]&&&&&&&&&&&&&&&&&&        ",
"        &&&&&&&&&&&&&&&&&&]^^^^^^^^^^]&&&&&&&&&&&&&&&&&&        ",
"        &&&&&&&&&&&&&&&&&&]^^^^^^^^^^]&&&&&&&&&&&&&&&&&&        ",
"        &&&&&&&&&&&&&&&&&&]^^^^^^^^^^]&&&&&&&&&&&&&&&&&&        ",
"        &&&&&&&&&&&&&&&&&&]^^^^^^^^^^]&&&&&&&&&&&&&&&&&&        ",
"        &&&&&&&&&&&&&&&&&&]^^^^^^^^^^]&&&&&&&&&&&&&&&&&&        ",
"        &&&&&&&&&&&&&&&&&&]^^^^^^^^^^]&&&&&&&&&&&&&&&&&&        ",
"        &&&&&&&&&&&&&&&&&&]^^^^^^^^^^]&&&&&&&&&&&&&&&&&&        ",
"        &&&&&&&&&&&&(]]]]]_^^^^^^^^^^_]]]]](&&&&&&&&&&&&        ",
"        &&&&&&&&&&&&:<^^^^^^^^^^^^^^^^^^^^<[&&&&&&&&&&&&        ",
"        &&&&&&&&&&&&&}|^^^^^^^^^^^^^^^^^^^1&&&&&&&&&&&&&        ",
"        &&&&&&&&&&&&&&2^^^^^^^^^^^^^^^^^^3&&&&&&&&&&&&&&        ",
"        &&&&&&&&&&&&&&&_^^^^^^^^^^^^^^^^4&&&&&&&&&&&&&&&        ",
"        &&&&&&&&&&&&&&&56^^^^^^^^^^^^^^78&&&&&&&&&&&&&&&        ",
"        &&&&&&&&&&&&&&&&90^^^^^^^^^^^^ab&&&&&&&&&&&&&&&&        ",
"        &&&&&&&&&&&&&&&&&cd^^^^^^^^^^ef&&&&&&&&&&&&&&&&&        ",
"        &&&&&&&&&&&&&&&&&&gh^^^^^^^^ij&&&&&&&&&&&&&&&&&&        ",
"        &&&&&&&&&&&&&&&&&&&kl^^^^^^mn&&&&&&&&&&&&&&&&&&&        ",
"        &&&&&&&&&&&&&&&&&&&&op^^^^qr&&&&&&&&&&&&&&&&&&&&        ",
"        s&&&&&&&&&&&&&&&&&&&&:<^^<[&&&&&&&&&&&&&&&&&&&&s        ",
"        t&&&&&&&&&&&&&&&&&&&&&}|^1&&&&&&&&&&&&&&&&&&&&&u        ",
"        #&&&&&&&&&&&&&&&&&&&&&&33&&&&&&&&&&&&&&&&&&&&&&#        ",
"        v&&&&&&&&&&&&&&&&&&&&&&&&&&&&&&&&&&&&&&&&&&&&&&w        ",
"        x&&&&&&&&&&&&&&&&&&&&&&&&&&&&&&&&&&&&&&&&&&&&&&x        ",
"        y&&&&&&&&&&&&&&&&&&&&&&&&&&&&&&&&&&&&&&&&&&&&&&y        ",
"        zA&&&&&&&&&&&&&&&&&&&&&&&&&&&&&&&&&&&&&&&&&&&&AB        ",
"        CD&&&&&&&&&&&&&&&&&&&&&&&&&&&&&&&&&&&&&&&&&&&&EC        ",
"        CFG&&&&&&&&&&&&&&&&&&&&&&&&&&&&&&&&&&&&&&&&&&HFC        ",
"        CCFDA&&&&&&&&&&&&&&&&&&&&&&&&&&&&&&&&&&&&&&AEFCC        ",
"        CCCCByxw#u&&&&&&&&&&&&&&&&&&&&&&&&&&&&u#wxyBCCCC        ",
"        CCCCCCCCCCCCCCCCCCCCCCCCCCCCCCCCCCCCCCCCCCCCCCCC        ",
"        CCCCCCCCCCCCCCCCCCCCCCCCCCCCCCCCCCCCCCCCCCCCCCCC        ",
"        FCCCCCCCCCCCCCCCCCCCCCCCCCCCCCCCCCCCCCCCCCCCCCCI        ",
"        JCCCCCCCCCCCCCCCCCCCCCCCCCCCCCCCCCCCCCCCCCCCCCCF        ",
"        JCCCCCCCCCCCCCCCCCCCCCCCCCCCCCCCCCCCCCCCCCCCCCCK        ",
"         CCCCCCCCCCCCCCCCCCCCCCCCCCCCCCCCCCCCCCCCCCCCCC         ",
"         LCCCCCCCCCCCCCCCCCCCCCCCCCCCCCCCCCCCCCCCCCCCCC         ",
"          CCCCCCCCCCCCCCCCCCCCCCCCCCCCCCCCCCCCCCCCCCCC          ",
"           CCCCCCCCCCCCCCCCCCCCCCCCCCCCCCCCCCCCCCCCCC           ",
"            CCCCCCCCCCCCCCCCCCCCCCCCCCCCCCCCCCCCCCCL            ",
"                MCIIIIIIIIIIIIIIIIIIIIIIIIIIIICM                ",
"                                                                ",
"                                                                ",
"                                                                ",
"                                                                ",
"                                                                "};
