/* XPM */
static char * mail_message_new_xpm[] = {
"64 64 175 2",
"  	c None",
". 	c #217EBE",
"+ 	c #237EBE",
"@ 	c #CB4B16",
"# 	c #CB4B17",
"$ 	c #227DBC",
"% 	c #227DBD",
"& 	c #CB4C16",
"* 	c #227EBD",
"= 	c #227CBD",
"- 	c #237DBD",
"; 	c #CC4B16",
"> 	c #237DBC",
", 	c #227EBE",
"' 	c #C94D17",
") 	c #CA4C15",
"! 	c #2D7AB2",
"~ 	c #C24E1F",
"{ 	c #FFFFFF",
"] 	c #FFFEFE",
"^ 	c #F9ECE6",
"/ 	c #F3D5C8",
"( 	c #ECBEAB",
"_ 	c #E6A78D",
": 	c #D97A53",
"< 	c #E9B19A",
"[ 	c #EFC8B8",
"} 	c #FEFAF9",
"| 	c #EFC9B9",
"1 	c #E39F83",
"2 	c #D97C56",
"3 	c #D36639",
"4 	c #CC501C",
"5 	c #CB4A16",
"6 	c #D46A3E",
"7 	c #D87750",
"8 	c #FAEEE9",
"9 	c #D15E2F",
"0 	c #F7E2DA",
"a 	c #D15F30",
"b 	c #FAEDE7",
"c 	c #D46B3F",
"d 	c #FBF2EE",
"e 	c #D8774F",
"f 	c #FEFCFB",
"g 	c #E09576",
"h 	c #AB5536",
"i 	c #E7AC93",
"j 	c #CB4C18",
"k 	c #7E6161",
"l 	c #FDF9F8",
"m 	c #CC4E1A",
"n 	c #C74C19",
"o 	c #277BB8",
"p 	c #F5DBD0",
"q 	c #477298",
"r 	c #EBBBA6",
"s 	c #6E6773",
"t 	c #E2997B",
"u 	c #925C4E",
"v 	c #D87A52",
"w 	c #B6522B",
"x 	c #CF5827",
"y 	c #CB4C17",
"z 	c #CA4B17",
"A 	c #2A7BB4",
"B 	c #3590D0",
"C 	c #2782C2",
"D 	c #DC8662",
"E 	c #F5DED4",
"F 	c #F4D8CD",
"G 	c #DA805B",
"H 	c #46739A",
"I 	c #237FC0",
"J 	c #2587CB",
"K 	c #3C97D7",
"L 	c #3C97D6",
"M 	c #338ECE",
"N 	c #2680C0",
"O 	c #F4DACF",
"P 	c #DC8663",
"Q 	c #F6DFD6",
"R 	c #F5DCD1",
"S 	c #DB835F",
"T 	c #596C86",
"U 	c #227EBF",
"V 	c #2585C9",
"W 	c #268BD2",
"X 	c #3A95D6",
"Y 	c #308BCA",
"Z 	c #F3D4C7",
"` 	c #DD8865",
" .	c #F6E0D7",
"..	c #F6DFD5",
"+.	c #DC8764",
"@.	c #596C87",
"#.	c #2484C6",
"$.	c #268AD1",
"%.	c #3A95D4",
"&.	c #2C87C7",
"*.	c #D26335",
"=.	c #E39E81",
"-.	c #F7E4DC",
";.	c #E4A085",
">.	c #B5522C",
",.	c #BC5025",
"'.	c #3C81B6",
").	c #3892D1",
"!.	c #CEE5F4",
"~.	c #D2E7F6",
"{.	c #2587CD",
"].	c #72B4E1",
"^.	c #E3F0F9",
"/.	c #E7F2FA",
"(.	c #75B5E2",
"_.	c #278BD2",
":.	c #419AD7",
"<.	c #8CC1E7",
"[.	c #F2F8FC",
"}.	c #F6FAFD",
"|.	c #92C5E8",
"1.	c #2D8FD3",
"2.	c #4A9ED9",
"3.	c #A6D0EC",
"4.	c #FCFDFE",
"5.	c #FDFEFF",
"6.	c #AFD4EE",
"7.	c #3A96D6",
"8.	c #59A6DD",
"9.	c #C0DEF2",
"0.	c #C5E0F3",
"a.	c #4DA0DA",
"b.	c #6EB1E1",
"c.	c #D9EBF7",
"d.	c #DDEDF8",
"e.	c #67AEDF",
"f.	c #3E98D7",
"g.	c #7FBBE4",
"h.	c #EBF4FB",
"i.	c #EFF6FC",
"j.	c #84BDE5",
"k.	c #298DD3",
"l.	c #449BD8",
"m.	c #99C9EA",
"n.	c #F8FBFE",
"o.	c #FAFCFE",
"p.	c #A1CDEB",
"q.	c #3392D5",
"r.	c #51A2DB",
"s.	c #B3D6EF",
"t.	c #FEFFFF",
"u.	c #BDDCF1",
"v.	c #439AD8",
"w.	c #63ACDE",
"x.	c #74B5E2",
"y.	c #E3F1F9",
"z.	c #8DC2E7",
"A.	c #4A9FD9",
"B.	c #A7D0EC",
"C.	c #5AA7DD",
"D.	c #C1DEF2",
"E.	c #3090D4",
"F.	c #3995D6",
"G.	c #2E8FD4",
"H.	c #3794D6",
"I.	c #2B8ED3",
"J.	c #3493D5",
"K.	c #298CD3",
"L.	c #3B96D6",
"M.	c #288CD2",
"N.	c #2F90D4",
"O.	c #3995D5",
"P.	c #2E8ED1",
"Q.	c #3895D6",
"R.	c #2D8DD1",
"                                                              . +                             @ #                               ",
"                                                            $ % % %                         @ @ @ &                             ",
"                                                        + % % % % % % *                     @ @ @ @                             ",
"                                                    % = % % % % % % % % $ -               @ @ @ @ @ ;                           ",
"                                                  > % % % % % % % % % % % % ,           ; @ @ @ @ @ @                           ",
"                                              . % % % % % % % % % % % % % % % % +       @ @ @ @ @ @ @ @                         ",
"                                            $ % % % % % % % % % % % % % % % % % % %   ' @ @ @ @ @ @ @ @ )                       ",
"                                        + % % % % % % % % % % % % % % % % % % % % % ! ~ @ @ @ @ @ @ @ @ @                       ",
"                { { { { { { { { { { { { { { { { { { { { { { { { { { { { { ] ^ / ( _ : @ @ @ @ @ @ @ @ @ @ : < [                 ",
"                { { { { { { { { { { { { { { { { { { { { { { { { } | 1 2 3 4 @ @ @ @ @ @ @ @ @ @ @ @ @ @ @ @ @ @ @ @ @ @ ) 5     ",
"                { { { { { { { { { { { { { { { { { { { { { { { { 6 @ @ @ @ @ @ @ @ @ @ @ @ @ @ @ @ @ @ @ @ @ @ @ @ @ @ @ @ @ @ ; ",
"                { { { { { { { { { { { { { { { { { { { { { { { { 7 @ @ @ @ @ @ @ @ @ @ @ @ @ @ @ @ @ @ @ @ @ @ @ @ @ @ @ @ @ @ @ ",
"                { { { { { { { { { { { { { { { { { { { { { { { { 8 9 @ @ @ @ @ @ @ @ @ @ @ @ @ @ @ @ @ @ @ @ @ @ @ @ @ @ @ @ ;   ",
"                { { { { { { { { { { { { { { { { { { { { { { { { { 0 a @ @ @ @ @ @ @ @ @ @ @ @ @ @ @ @ @ @ @ @ @ @ @ @ @ @ @     ",
"                { { { { { { { { { { { { { { { { { { { { { { { { { { b c @ @ @ @ @ @ @ @ @ @ @ @ @ @ @ @ @ @ @ @ @ @ @ @ @       ",
"              . { { { { { { { { { { { { { { { { { { { { { { { { { { { d e @ @ @ @ @ @ @ @ @ @ @ @ @ @ @ @ @ @ @ @ @ @ @         ",
"            $ % { { { { { { { { { { { { { { { { { { { { { { { { { { { { f g @ @ @ @ @ @ @ @ @ @ @ @ @ @ @ @ @ @ @ @ h           ",
"        + % % % { { { { { { { { { { { { { { { { { { { { { { { { { { { { { { i j @ @ @ @ @ @ @ @ @ @ @ @ @ @ @ @ @ k > *         ",
"    % = % % % % { { { { { { { { { { { { { { { { { { { { { { { { { { { { { { l m @ @ @ @ @ @ @ @ @ @ @ @ @ @ @ @ n o % % $ -     ",
"  > % % % % % % { { { { { { { { { { { { { { { { { { { { { { { { { { { { { { p @ @ @ @ @ @ @ @ @ @ @ @ @ @ @ @ @ @ q % % % % ,   ",
"% % % % % % % % { { { { { { { { { { { { { { { { { { { { { { { { { { { { { { r @ @ @ @ @ @ @ @ @ @ @ @ @ @ @ @ @ @ s % % % % % % ",
"% % % % % % % % { { { { { { { { { { { { { { { { { { { { { { { { { { { { { { t @ @ @ @ @ @ @ @ @ @ @ @ @ @ @ @ @ @ u % % % % % % ",
"% % % % % % % % { { { { { { { { { { { { { { { { { { { { { { { { { { { { { { v @ @ @ @ @ @ @ @ @ @ @ @ @ @ @ @ @ @ w % % % % % % ",
"% % % % % % % % { { { { { { { { { { { { { { { { { { { { { { { { { { { { { { x @ @ @ @ @ @ @ @ y @ @ @ @ @ @ @ @ @ z A % % % % % ",
"B C % % % % % % { { { { { { { { { { { { { { { { { { { { { { { { { { { { { ^ @ @ @ @ @ @ @ y D E F G y @ @ @ @ @ @ @ H % % % I J ",
"K L M N % % % % { { { { { { { { { { { { { { { { { { { { { { { { { { { { { O @ @ @ @ @ j P Q { { { { R S y @ @ @ @ @ T % U V W W ",
"K K K X Y + % % { { { { { { { { { { { { { { { { { { { { { { { { { { { { { Z @ @ @ j `  .{ { { { { { { { ..+.j @ @ @ @.#.$.W W W ",
"K K K K K %.&.* { { { { { { { { { { { { { { { { { { { { { { { { { { { { { d a *.=.0 { { { { { { { { { { { { -.;.>.,.'.W W W W W ",
"K K K K K K K ).!.{ { { { { { { { { { { { { { { { { { { { { { { { { { { { { { { { { { { { { { { { { { { { { { ~.{.W W W W W W W ",
"K K K K K K K K K ].^.{ { { { { { { { { { { { { { { { { { { { { { { { { { { { { { { { { { { { { { { { { { /.(._.W W W W W W W W ",
"K K K K K K K K K K :.<.[.{ { { { { { { { { { { { { { { { { { { { { { { { { { { { { { { { { { { { { { }.|.1.W W W W W W W W W W ",
"K K K K K K K K K K K K 2.3.4.{ { { { { { { { { { { { { { { { { { { { { { { { { { { { { { { { { { 5.6.7.W W W W W W W W W W W W ",
"K K K K K K K K K K K K K K 8.9.{ { { { { { { { { { { { { { { { { { { { { { { { { { { { { { { { 0.a.W W W W W W W W W W W W W W ",
"K K K K K K K K K K K K K K K K b.c.{ { { { { { { { { { { { { { { { { { { { { { { { { { { { d.e.W W W W W W W W W W W W W W W W ",
"K K K K K K K K K K K K K K K K K f.g.h.{ { { { { { { { { { { { { { { { { { { { { { { { i.j.k.W W W W W W W W W W W W W W W W W ",
"K K K K K K K K K K K K K K K K K K K l.m.n.{ { { { { { { { { { { { { { { { { { { { o.p.q.W W W W W W W W W W W W W W W W W W W ",
"K K K K K K K K K K K K K K K K K K K K K r.s.t.{ { { { { { { { { { { { { { { { { u.v.W W W W W W W W W W W W W W W W W W W W W ",
"K K K K K K K K K K K K K K K K K K K K K K K w.!.{ { { { { { { { { { { { { { ~.8.W W W W W W W W W W W W W W W W W W W W W W W ",
"K K K K K K K K K K K K K K K K K K K K K K K K K x.y.{ { { { { { { { { { /.(._.W W W W W W W W W W W W W W W W W W W W W W W W ",
"K K K K K K K K K K K K K K K K K K K K K K K K K K :.z.[.{ { { { { { }.|.1.W W W W W W W W W W W W W W W W W W W W W W W W W W ",
"K K K K K K K K K K K K K K K K K K K K K K K K K K K K A.B.4.{ { 5.6.7.W W W W W W W W W W W W W W W W W W W W W W W W W W W W ",
"K K K K K K K K K K K K K K K K K K K K K K K K K K K K K K C.D.0.a.W W W W W W W W W W W W W W W W W W W W W W W W W W W W W W ",
"K K K K K K K K K K K K K K K K K K K K K K K K K K K K K K K K 7.E._.W W W W W W W W W W W W W W W W W W W W W W W W W W W W W ",
"K K K K K K K K K K K K K K K K K K K K K K K K K K K K K K K K K K F.G.W W W W W W W W W W W W W W W W W W W W W W W W W W W W ",
"K K K K K K K K K K K K K K K K K K K K K K K K K K K K K K K K K K K K H.I.W W W W W W W W W W W W W W W W W W W W W W W W W W ",
"K K K K K K K K K K K K K K K K K K K K K K K K K K K K K K K K K K K K K K J.K.W W W W W W W W W W W W W W W W W W W W W W W W ",
"K K K K K K K K K K K K K K K K K K K K K K K K K K K K K K K K K K K K K K K L.q.M.W W W W W W W W W W W W W W W W W W W W W W ",
"K K K K K K K K K K K K K K K K K K K K K K K K K K K K K K K K K K K K K K K K K 7.E._.W W W W W W W W W W W W W W W W W W W W ",
"K K K K K K K K K K K K K K K K K K K K K K K K K K K K K K K K K K K K K K K K K K K F.G.W W W W W W W W W W W W W W W W W W W ",
"K K K K K K K K K K K K K K K K K K K K K K K K K K K K K K K K K K K K K K K K K K K K K H.I.W W W W W W W W W W W W W W W W W ",
"K K K K K K K K K K K K K K K K K K K K K K K K K K K K K K K K K K K K K K K K K K K K K K K J.K.W W W W W W W W W W W W W W W ",
"K K K K K K K K K K K K K K K K K K K K K K K K K K K K K K K K K K K K K K K K K K K K K K K K L.q.M.W W W W W W W W W W W W W ",
"K K K K K K K K K K K K K K K K K K K K K K K K K K K K K K K K K K K K K K K K K K K K K K K K K K 7.E._.W W W W W W W W W W W ",
"K K K K K K K K K K K K K K K K K K K K K K K K K K K K K K K K K K K K K K K K K K K K K K K K K K K K F.G.W W W W W W W W W W ",
"K K K K K K K K K K K K K K K K K K K K K K K K K K K K K K K K K K K K K K K K K K K K K K K K K K K K K K H.I.W W W W W W W W ",
"K K K K K K K K K K K K K K K K K K K K K K K K K K K K K K K K K K K K K K K K K K K K K K K K K K K K K K K K J.K.W W W W W W ",
"K K K K K K K K K K K K K K K K K K K K K K K K K K K K K K K K K K K K K K K K K K K K K K K K K K K K K K K K K L.q.M.W W W W ",
"K K K K K K K K K K K K K K K K K K K K K K K K K K K K K K K K K K K K K K K K K K K K K K K K K K K K K K K K K K K 7.E._.W W ",
"K K K K K K K K K K K K K K K K K K K K K K K K K K K K K K K K K K K K K K K K K K K K K K K K K K K K K K K K K K K K K X N.W ",
"K K K K K K K K K K K K K K K K K K K K K K K K K K K K K K K K K K K K K K K K K K K K K K K K K K K K K K K K K K K K K K K H.",
"L.K K K K K K K K K K K K K K K K K K K K K K K K K K K K K K K K K K K K K K K K K K K K K K K K K K K K K K K K K K K K K K L.",
"L.K K K K K K K K K K K K K K K K K K K K K K K K K K K K K K K K K K K K K K K K K K K K K K K K K K K K K K K K K K K K K K 7.",
"F.K K K K K K K K K K K K K K K K K K K K K K K K K K K K K K K K K K K K K K K K K K K K K K K K K K K K K K K K K K K K K K O.",
"P.F.7.L.K K K K K K K K K K K K K K K K K K K K K K K K K K K K K K K K K K K K K K K K K K K K K K K K K K K K K K K K L.7.Q.R."};
